<svg width="39" height="36" viewBox="0 0 39 36" fill="none" xmlns="http://www.w3.org/2000/svg">
<g id="image_24dp_5F6368_FILL0_wght400_GRAD0_opsz24 (1) 1">
<path id="Vector" d="M8.125 31.5C7.23125 31.5 6.46615 31.2063 5.82969 30.6188C5.19323 30.0313 4.875 29.325 4.875 28.5V7.5C4.875 6.675 5.19323 5.96875 5.82969 5.38125C6.46615 4.79375 7.23125 4.5 8.125 4.5H30.875C31.7688 4.5 32.5339 4.79375 33.1703 5.38125C33.8068 5.96875 34.125 6.675 34.125 7.5V28.5C34.125 29.325 33.8068 30.0313 33.1703 30.6188C32.5339 31.2063 31.7688 31.5 30.875 31.5H8.125ZM8.125 28.5H30.875V7.5H8.125V28.5ZM9.75 25.5H29.25L23.1563 18L18.2813 24L14.625 19.5L9.75 25.5Z" fill="#9CA3AF"/>
</g>
</svg>
