<svg width="41" height="46" viewBox="0 0 41 46" fill="none" xmlns="http://www.w3.org/2000/svg">
<g id="image_24dp_5F6368_FILL0_wght400_GRAD0_opsz24 (1) 1">
<path id="Vector" d="M8.90755 39.7217C7.99572 39.7217 7.21513 39.3577 6.5658 38.6298C5.91646 37.9019 5.5918 37.0269 5.5918 36.0048V9.98643C5.5918 8.96429 5.91646 8.08927 6.5658 7.36137C7.21513 6.63348 7.99572 6.26953 8.90755 6.26953H32.1178C33.0296 6.26953 33.8102 6.63348 34.4595 7.36137C35.1089 8.08927 35.4335 8.96429 35.4335 9.98643V36.0048C35.4335 37.0269 35.1089 37.9019 34.4595 38.6298C33.8102 39.3577 33.0296 39.7217 32.1178 39.7217H8.90755ZM8.90755 36.0048H32.1178V9.98643H8.90755V36.0048ZM10.5654 32.2879H30.4599L24.2429 22.9956L19.2693 30.4294L15.539 24.854L10.5654 32.2879Z" fill="#9CA3AF"/>
</g>
</svg>
