<svg width="93" height="26" viewBox="0 0 93 26" fill="none" xmlns="http://www.w3.org/2000/svg">
<g id="EC-&#237;&#134;&#161;&#237;&#134;&#161;">
<path id="Vector" d="M70.4795 13.3261H93V16.1479H70.4795V13.3261ZM79.9392 10.3969H83.5134V14.0786H79.9392V10.3969ZM73.0057 17.626H90.2588V25.0163H86.6846V20.4478H73.0057V17.626ZM73.2744 8.83816H90.6082V11.5524H73.2744V8.83816ZM73.2744 0.695312H90.42V3.40959H76.8218V10.2087H73.2744V0.695312ZM75.8274 4.78017H89.8557V7.38696H75.8274V4.78017Z" fill="white"/>
<path id="Vector_2" d="M46.2949 13.3261H68.8154V16.1479H46.2949V13.3261ZM55.7546 10.3969H59.3288V14.0786H55.7546V10.3969ZM48.8211 17.626H66.0742V25.0163H62.5V20.4478H48.8211V17.626ZM49.0898 8.83816H66.4236V11.5524H49.0898V8.83816ZM49.0898 0.695312H66.2355V3.40959H52.6372V10.2087H49.0898V0.695312ZM51.6429 4.78017H65.6711V7.38696H51.6429V4.78017Z" fill="white"/>
<path id="Vector_3" d="M35.8896 11.9824H44.7043V16.4704H35.8896V11.9824Z" fill="white"/>
<path id="Vector_4" d="M26.4437 22.9999C25.1 22.9999 23.8369 22.758 22.6545 22.2743C21.472 21.7905 20.4419 21.1187 19.564 20.2587C18.704 19.3808 18.0142 18.3507 17.4947 17.1682C16.993 15.9678 16.7422 14.6689 16.7422 13.2715V13.2177C16.7422 11.8561 16.993 10.584 17.4947 9.40159C17.9963 8.20122 18.6861 7.16208 19.564 6.2842C20.4419 5.3884 21.481 4.68967 22.6814 4.18802C23.8996 3.68637 25.2254 3.43555 26.6587 3.43555C27.6262 3.43555 28.5041 3.53409 29.2924 3.73116C30.0807 3.91032 30.7973 4.17906 31.4423 4.53738C32.1052 4.87779 32.6964 5.28986 33.216 5.77359C33.7535 6.25732 34.2283 6.78585 34.6403 7.35916L30.7167 10.3959C30.1792 9.71512 29.588 9.17764 28.943 8.78349C28.298 8.38933 27.5187 8.19226 26.605 8.19226C25.9421 8.19226 25.3329 8.32663 24.7775 8.59537C24.2401 8.84619 23.7742 9.19556 23.3801 9.64346C22.9859 10.0914 22.6724 10.6199 22.4395 11.229C22.2245 11.8382 22.117 12.4832 22.117 13.164V13.2177C22.117 13.9164 22.2245 14.5793 22.4395 15.2064C22.6724 15.8155 22.9859 16.3441 23.3801 16.792C23.7742 17.2399 24.2401 17.5982 24.7775 17.8669C25.3329 18.1177 25.9421 18.2432 26.605 18.2432C27.0887 18.2432 27.5276 18.1894 27.9218 18.0819C28.3339 17.9744 28.7011 17.8221 29.0236 17.6251C29.364 17.4101 29.6776 17.1682 29.9642 16.8995C30.2688 16.6128 30.5644 16.2993 30.8511 15.9589L34.7747 18.7538C34.3268 19.3629 33.8341 19.9273 33.2966 20.4468C32.7771 20.9664 32.1769 21.4143 31.4961 21.7905C30.8332 22.1668 30.0807 22.4624 29.2386 22.6774C28.4145 22.8924 27.4829 22.9999 26.4437 22.9999Z" fill="white"/>
<path id="Vector_5" d="M0 3.8125H15.1301V8.24672H5.15982V11.0954H14.1895V15.2071H5.15982V18.1901H15.2645V22.6243H0V3.8125Z" fill="white"/>
</g>
</svg>
