<svg width="16" height="16" viewBox="0 0 16 16" fill="none" xmlns="http://www.w3.org/2000/svg">
<path fill-rule="evenodd" clip-rule="evenodd" d="M1.8999 8.00039C1.8999 7.66902 2.16853 7.40039 2.4999 7.40039H13.4999C13.8313 7.40039 14.0999 7.66902 14.0999 8.00039C14.0999 8.33176 13.8313 8.60039 13.4999 8.60039H2.4999C2.16853 8.60039 1.8999 8.33176 1.8999 8.00039Z" fill="#374151"/>
<path fill-rule="evenodd" clip-rule="evenodd" d="M1.8999 4.00039C1.8999 3.66902 2.16853 3.40039 2.4999 3.40039H13.4999C13.8313 3.40039 14.0999 3.66902 14.0999 4.00039C14.0999 4.33176 13.8313 4.60039 13.4999 4.60039H2.4999C2.16853 4.60039 1.8999 4.33176 1.8999 4.00039Z" fill="#374151"/>
<path fill-rule="evenodd" clip-rule="evenodd" d="M1.8999 12.0004C1.8999 11.669 2.16853 11.4004 2.4999 11.4004H13.4999C13.8313 11.4004 14.0999 11.669 14.0999 12.0004C14.0999 12.3318 13.8313 12.6004 13.4999 12.6004H2.4999C2.16853 12.6004 1.8999 12.3318 1.8999 12.0004Z" fill="#374151"/>
</svg>
